<svg width="101" height="120" viewBox="0 0 101 120" fill="none" xmlns="http://www.w3.org/2000/svg">
<g opacity="0.6">
<path d="M0 0L35.5491 8.2529V110.201L0 119.424V0Z" fill="#D9D9D9"/>
<path d="M61.1228 40.5542C71.3149 32.7228 96.0673 35.5303 96.0673 35.5303V55.9217L54.1073 55.9217C54.1073 55.9217 50.9306 48.3856 61.1228 40.5542Z" fill="#4EA09B"/>
<path d="M109.613 40.5542C99.421 32.7228 74.6686 35.5303 74.6686 35.5303V55.9217L116.629 55.9217C116.629 55.9217 119.805 48.3856 109.613 40.5542Z" fill="#4EA09B"/>
<ellipse cx="63.5517" cy="48.2483" rx="2.76707" ry="3.19606" fill="black"/>
<ellipse cx="77.1393" cy="48.2483" rx="2.76707" ry="3.19606" fill="black"/>
<rect x="50.7733" y="57.9165" width="69.3663" height="27.1744" rx="6" fill="#4EA09B"/>
<rect x="47.9128" y="87.2441" width="75.0872" height="32.1802" rx="6" fill="#4EA09B"/>
<line x1="52.6754" y1="67.8345" x2="28.8583" y2="47.3712" stroke="#4EA09B" stroke-width="8"/>
<line x1="25.814" y1="44.3372" x2="25.814" y2="112.988" stroke="#E2E461" stroke-width="3"/>
<line x1="26.4594" y1="50.5581" x2="25.7443" y2="50.5581" stroke="black"/>
<line x1="26.4594" y1="64.8604" x2="25.7443" y2="64.8604" stroke="black"/>
<line x1="26.4594" y1="79.1628" x2="25.7443" y2="79.1628" stroke="black"/>
<line x1="26.4594" y1="93.4651" x2="25.7443" y2="93.4651" stroke="black"/>
<line x1="26.4594" y1="107.767" x2="25.7443" y2="107.767" stroke="black"/>
<line x1="26.4594" y1="57.7092" x2="25.7443" y2="57.7092" stroke="black"/>
<line x1="26.4594" y1="72.0115" x2="25.7443" y2="72.0115" stroke="black"/>
<line x1="26.4594" y1="86.3137" x2="25.7443" y2="86.3137" stroke="black"/>
<line x1="26.4594" y1="100.616" x2="25.7443" y2="100.616" stroke="black"/>
<line x1="26.4594" y1="54.1335" x2="25.7443" y2="54.1335" stroke="black"/>
<line x1="26.4594" y1="68.4358" x2="25.7443" y2="68.4358" stroke="black"/>
<line x1="26.4594" y1="82.7383" x2="25.7443" y2="82.7383" stroke="black"/>
<line x1="26.4594" y1="97.0405" x2="25.7443" y2="97.0405" stroke="black"/>
<line x1="26.4594" y1="111.343" x2="25.7443" y2="111.343" stroke="black"/>
<line x1="26.4594" y1="61.2849" x2="25.7443" y2="61.2849" stroke="black"/>
<line x1="26.4594" y1="75.5872" x2="25.7443" y2="75.5872" stroke="black"/>
<line x1="26.4594" y1="89.8896" x2="25.7443" y2="89.8896" stroke="black"/>
<line x1="26.4594" y1="104.192" x2="25.7443" y2="104.192" stroke="black"/>
<path d="M22.8838 45.3708L25.5396 42.8053C27.5256 40.8866 30.691 40.9413 32.6096 42.9274L34.059 44.4277L27.8071 50.4672L22.8838 45.3708Z" fill="#B1B1B1"/>
<circle cx="28.6411" cy="45.0889" r="2.2144" fill="#F9FFB6"/>
</g>
</svg>
